# xmcd CD database file
#
# Track frame offsets:
#	150
#	23490
#	51225
#	74565
#
# Disc length: 1361 seconds
#
# Revision: 4
# Processed by: cddbd v1.5.2PL0 Copyright (c) Steve Scherf et al.
# Submitted via: CDex 1.70beta2
#
DISCID=30054f04
DTITLE=marianne Amplifier feat.yuka VICL-35730 - 月詠 -MOONPHASE- ED2 悲しい予感 EDS 波のトリコになるように
DYEAR=2004
DGENRE=Anime
TTITLE0=marianne Amplifier feat.yuka - 悲しい予感
TTITLE1=小川範子 - 波のトリコになるように
TTITLE2=marianne Amplifier feat.yuka - 悲しい予感 -Instrumental-
TTITLE3=小川範子 - 波のトリコになるように -Instrumental-
EXTD=YEAR: 2004
EXTT0=
EXTT1=
EXTT2=
EXTT3=
PLAYORDER=
